<svg width="36" height="36" viewBox="0 0 36 36" fill="none" xmlns="http://www.w3.org/2000/svg">
<path d="M30.111 13.375H16.986C15.3752 13.375 14.0693 14.6808 14.0693 16.2917V29.4167C14.0693 31.0275 15.3752 32.3333 16.986 32.3333H30.111C31.7218 32.3333 33.0277 31.0275 33.0277 29.4167V16.2917C33.0277 14.6808 31.7218 13.375 30.111 13.375Z" stroke="#111111" stroke-width="2" stroke-linecap="round" stroke-linejoin="round"/>
<path d="M8.23602 22.1251H6.77769C6.00414 22.1251 5.26228 21.8178 4.71529 21.2708C4.16831 20.7238 3.86102 19.982 3.86102 19.2084V6.08341C3.86102 5.30987 4.16831 4.568 4.71529 4.02102C5.26228 3.47404 6.00414 3.16675 6.77769 3.16675H19.9027C20.6762 3.16675 21.4181 3.47404 21.9651 4.02102C22.5121 4.568 22.8194 5.30987 22.8194 6.08341V7.54175" stroke="#111111" stroke-width="2" stroke-linecap="round" stroke-linejoin="round"/>
</svg>
