<svg width="36" height="36" viewBox="0 0 36 36" fill="none" xmlns="http://www.w3.org/2000/svg">
<path d="M15.5555 19.5417C16.1818 20.379 16.9808 21.0718 17.8984 21.5731C18.8159 22.0744 19.8306 22.3725 20.8735 22.4472C21.9164 22.5219 22.9632 22.3714 23.9429 22.006C24.9225 21.6405 25.8121 21.0687 26.5513 20.3292L30.9263 15.9542C32.2546 14.579 32.9895 12.7371 32.9729 10.8252C32.9563 8.91338 32.1894 7.08454 30.8375 5.7326C29.4856 4.38067 27.6567 3.61381 25.7449 3.5972C23.833 3.58059 21.9911 4.31554 20.6159 5.64378L18.1076 8.13753" stroke="#111111" stroke-width="2" stroke-linecap="round" stroke-linejoin="round"/>
<path d="M21.3889 16.6253C20.7626 15.788 19.9636 15.0952 19.046 14.5939C18.1284 14.0926 17.1138 13.7945 16.0708 13.7198C15.0279 13.6451 13.9812 13.7956 13.0015 14.161C12.0219 14.5265 11.1323 15.0983 10.393 15.8378L6.01805 20.2128C4.68981 21.588 3.95485 23.4299 3.97147 25.3418C3.98808 27.2536 4.75494 29.0825 6.10687 30.4344C7.45881 31.7863 9.28765 32.5532 11.1995 32.5698C13.1113 32.5864 14.9532 31.8514 16.3285 30.5232L18.8222 28.0295" stroke="#111111" stroke-width="2" stroke-linecap="round" stroke-linejoin="round"/>
</svg>
