<svg id="Layer_1" data-name="Layer 1" xmlns="http://www.w3.org/2000/svg" viewBox="0 0 780.58447 806.273"><defs><style>.cls-1{fill:#201d20;}.cls-2{fill:#efb661;}.cls-3{fill:#433d43;}</style></defs><path class="cls-1" d="M250.17834,426.0592s-45.79141-128.55288-55.55087-138.19485-17.139-10.76141-28.37542-7.97706-18.141,16.0196-17.70127,24.55388S196.08431,528.442,203.90363,538.09571s8.8736,14.71828,104.71567,54.856c42.01516,17.59554,66.92652,30.25009,66.92652,30.25009l9.8182,19.34268c6.86563,13.52587,18.515,33.664,24.9006,44.55275a11.087,11.087,0,0,0,13.02031,4.93075,245.596,245.596,0,0,0,39.49178-17.74474c8.12891-4.78606,25.16006-13.03977,35.27291-19.10548a23.72921,23.72921,0,0,0,9.72878-11.08981c1.91934-4.56535.45759-8.24554-39.49346-85.47478-51.82834-100.18921-69.57661-83.39589-122.8164-96.267-54.865-13.26394-111.4298-42.20394-122.87092-9.151s49.15475,43.16312,64.71114,48.88956,55.95364,12.46657,57.96427,24.09568-22.49625,1.6884-59.42945-9.72923-77.21045-30.38184-77.88766-46.09347C205.84081,421.28574,242.8105,426.8799,250.17834,426.0592Z" transform="translate(-134.90186 -108.99995)"/><path class="cls-1" d="M800.16928,426.0592s45.79142-128.55288,55.55087-138.19485,17.139-10.76141,28.37543-7.97706,18.141,16.0196,17.70127,24.55388S854.26331,528.442,846.444,538.09571s-8.87361,14.71828-104.71567,54.856c-42.01516,17.59554-66.92652,30.25009-66.92652,30.25009l-9.8182,19.34268c-6.86563,13.52587-18.515,33.664-24.9006,44.55275a11.08705,11.08705,0,0,1-13.02032,4.93075,245.5959,245.5959,0,0,1-39.49177-17.74474c-8.12891-4.78606-25.16007-13.03977-35.27291-19.10548a23.72921,23.72921,0,0,1-9.72878-11.08981c-1.91934-4.56535-.45759-8.24554,39.49346-85.47478,51.82834-100.18921,69.57661-83.39589,122.8164-96.267,54.865-13.26394,111.4298-42.20394,122.87092-9.151s-49.15476,43.16312-64.71114,48.88956-55.95364,12.46657-57.96427,24.09568,22.49625,1.6884,59.42944-9.72923,77.21046-30.38184,77.88766-46.09347C844.50682,421.28574,807.53712,426.8799,800.16928,426.0592Z" transform="translate(-134.90186 -108.99995)"/><path class="cls-2" d="M689.85767,256.76223C659.78411,314.596,579.33092,393.24989,533.835,435.14726a12.84971,12.84971,0,0,1-17.22161,0c-45.75292-41.89734-126.2061-120.55127-156.27965-178.385C294.27476,129.528,460.836,44.70512,525.09572,171.93939,589.35545,44.70512,755.91667,129.528,689.85767,256.76223Z" transform="translate(-134.90186 -108.99995)"/><path class="cls-3" d="M211.502,913.67285a14.51525,14.51525,0,0,1-6.6499-1.20019q-2.25-1.19971-3.75-5l-2.20019-5.69971q-3.90015,3.29957-7.5,5.7998a47.41014,47.41014,0,0,1-7.4502,4.25,36.78761,36.78761,0,0,1-8.19971,2.6001,50.567,50.567,0,0,1-9.6499.8501,42.165,42.165,0,0,1-12.90039-1.85645,26.87353,26.87353,0,0,1-9.84961-5.46728,24.02685,24.02685,0,0,1-6.25-8.97949,32.45936,32.45936,0,0,1-2.20019-12.38916,26.05249,26.05249,0,0,1,2.7998-11.33741q2.79858-5.81689,9.7002-10.58447,6.90013-4.7644,18.60009-7.9751,11.69971-3.21093,29.5-3.21093v-4.44043q0-9.18311-3.75-13.272-3.75-4.08764-10.6499-4.0874a28.2366,28.2366,0,0,0-9,1.2002,40.35887,40.35887,0,0,0-6.25,2.6997q-2.7517,1.5-5.3501,2.7002a14.70237,14.70237,0,0,1-6.20019,1.19971,9.36212,9.36212,0,0,1-5.44971-1.54981,11.48554,11.48554,0,0,1-3.55029-3.8501l-5.6001-9.6997a63.01554,63.01554,0,0,1,20.8501-12.3501,73.08341,73.08341,0,0,1,24.55029-4.05029,44.91613,44.91613,0,0,1,16.94971,3.05029,36.50244,36.50244,0,0,1,12.80029,8.5,37.156,37.156,0,0,1,8.04981,12.94971,46.5649,46.5649,0,0,1,2.7998,16.40039v64.7998ZM175.90186,894.773a24.59808,24.59808,0,0,0,10.5-2.1001,31.977,31.977,0,0,0,9.10009-6.7998v-14.2002a79.66848,79.66848,0,0,0-15.30029,1.21094,36.88124,36.88124,0,0,0-9.5,3.02637,11.523,11.523,0,0,0-4.84961,4.13623,9.8452,9.8452,0,0,0-1.3501,5.042q0,5.34888,2.89991,7.51562Q170.30078,894.77417,175.90186,894.773Z" transform="translate(-134.90186 -108.99995)"/><path class="cls-3" d="M276.69922,809.97266V875.773q0,7.70142,3.5,11.8999,3.49952,4.19971,10.2998,4.2002a22.09894,22.09894,0,0,0,9.5503-2.1001,35.61529,35.61529,0,0,0,8.6499-5.8999V809.97266h31V913.67285H320.499q-5.80077,0-7.59961-5.20019l-1.90039-6a59.91709,59.91709,0,0,1-6.1997,5.25,37.93786,37.93786,0,0,1-6.8501,4,41.00171,41.00171,0,0,1-7.8501,2.60009,41.742,41.742,0,0,1-9.19971.9502,36.31423,36.31423,0,0,1-15.05029-2.9502,30.92823,30.92823,0,0,1-11.0498-8.25,35.97228,35.97228,0,0,1-6.8003-12.5,51.66676,51.66676,0,0,1-2.2998-15.7998V809.97266Z" transform="translate(-134.90186 -108.99995)"/><path class="cls-3" d="M388.49609,860.07275l-33.3999-50.10009h29.80029a10.53442,10.53442,0,0,1,4.84961.85009,7.56582,7.56582,0,0,1,2.75,2.8501l18.5,30.7002a23.15571,23.15571,0,0,1,1.5-3.5q.90015-1.69923,2-3.6001l13.2002-23.1001a8.52219,8.52219,0,0,1,2.8999-3.25,7.51388,7.51388,0,0,1,3.8999-.95019h28.40039l-33.40039,48.70019,34.8003,55h-29.8003a8.23024,8.23024,0,0,1-5.2998-1.6001,13.78173,13.78173,0,0,1-3.29981-3.7998l-18.5-31.80029a22.88887,22.88887,0,0,1-1.20019,3.20019,27.734,27.734,0,0,1-1.5,2.79981L389.49609,908.273a13.612,13.612,0,0,1-3.1997,3.75,7.59686,7.59686,0,0,1-5,1.6499h-27.6001Z" transform="translate(-134.90186 -108.99995)"/><path class="cls-3" d="M513.896,781.57275a16.37963,16.37963,0,0,1-1.5,6.9502,18.28951,18.28951,0,0,1-4.1001,5.69971,20.04381,20.04381,0,0,1-6.04981,3.90039,18.77374,18.77374,0,0,1-7.35009,1.4497,17.44684,17.44684,0,0,1-7.1001-1.4497,19.91613,19.91613,0,0,1-5.8501-3.90039,17.97833,17.97833,0,0,1-4-5.69971,16.84777,16.84777,0,0,1-1.44971-6.9502,17.44542,17.44542,0,0,1,1.44971-7.10009,18.42061,18.42061,0,0,1,4-5.79981,18.76486,18.76486,0,0,1,5.8501-3.8999,17.9896,17.9896,0,0,1,7.1001-1.3999,19.36412,19.36412,0,0,1,7.35009,1.3999,18.91976,18.91976,0,0,1,6.04981,3.8999,18.73112,18.73112,0,0,1,4.1001,5.79981A16.95746,16.95746,0,0,1,513.896,781.57275Zm-3.6001,28.39991V913.67285h-31V809.97266Z" transform="translate(-134.90186 -108.99995)"/><path class="cls-3" d="M567.293,763.97266V913.67285h-31V763.97266Z" transform="translate(-134.90186 -108.99995)"/><path class="cls-3" d="M627.89062,781.57275a16.37963,16.37963,0,0,1-1.5,6.9502,18.29589,18.29589,0,0,1-4.0996,5.69971,20.04381,20.04381,0,0,1-6.04981,3.90039,18.77266,18.77266,0,0,1-7.35059,1.4497,17.44618,17.44618,0,0,1-7.0996-1.4497,19.90088,19.90088,0,0,1-5.84961-3.90039,17.955,17.955,0,0,1-4-5.69971,16.84015,16.84015,0,0,1-1.4502-6.9502,17.43751,17.43751,0,0,1,1.4502-7.10009,18.39651,18.39651,0,0,1,4-5.79981,18.75127,18.75127,0,0,1,5.84961-3.8999,17.98892,17.98892,0,0,1,7.0996-1.3999,19.363,19.363,0,0,1,7.35059,1.3999,18.7885,18.7885,0,0,1,10.14941,9.69971A16.95746,16.95746,0,0,1,627.89062,781.57275Zm-3.5996,28.39991V913.67285h-31V809.97266Z" transform="translate(-134.90186 -108.99995)"/><path class="cls-3" d="M678.28906,809.97266V875.773q0,7.70142,3.5,11.8999,3.49952,4.19971,10.29981,4.2002a22.09514,22.09514,0,0,0,9.5498-2.1001,35.608,35.608,0,0,0,8.65039-5.8999V809.97266h31V913.67285H722.08887q-5.80079,0-7.59961-5.20019l-1.90039-6a59.92183,59.92183,0,0,1-6.2002,5.25,37.917,37.917,0,0,1-6.84961,4,41.008,41.008,0,0,1-7.84961,2.60009,41.74967,41.74967,0,0,1-9.20019.9502,36.312,36.312,0,0,1-15.04981-2.9502,30.93189,30.93189,0,0,1-11.05078-8.25,35.97116,35.97116,0,0,1-6.7998-12.5,51.66675,51.66675,0,0,1-2.29981-15.7998V809.97266Z" transform="translate(-134.90186 -108.99995)"/><path class="cls-3" d="M765.28613,913.67285V809.97266h19.2002a8.56325,8.56325,0,0,1,4.84961,1.30029,6.94932,6.94932,0,0,1,2.75,3.8999l1.70019,5.6001a57.313,57.313,0,0,1,5.40039-4.9502,34.65991,34.65991,0,0,1,6.04981-3.8999,32.79642,32.79642,0,0,1,15.25-3.5498q9.39843,0,15.5498,4.84961a30.23294,30.23294,0,0,1,9.34961,12.95019,30.67126,30.67126,0,0,1,6.35059-8.20019,34.15532,34.15532,0,0,1,8.09961-5.5,39.3615,39.3615,0,0,1,9.20019-3.09961,47.72239,47.72239,0,0,1,9.65039-1,43.88228,43.88228,0,0,1,15.79981,2.6499,30.1048,30.1048,0,0,1,11.5498,7.69971,33.25135,33.25135,0,0,1,7.04981,12.40039,53.51434,53.51434,0,0,1,2.40039,16.6499v65.8999h-31V847.773q0-16.09937-13.79981-16.1001a14.171,14.171,0,0,0-10.45019,4.1499q-4.15137,4.15063-4.15039,11.9502v65.8999h-31V847.773q0-8.89967-3.5-12.5-3.501-3.59985-10.29981-3.6001a17.36751,17.36751,0,0,0-7.95019,1.8999,28.92152,28.92152,0,0,0-7.04981,5.1001v75Z" transform="translate(-134.90186 -108.99995)"/></svg>