<svg id="Layer_1" data-name="Layer 1" xmlns="http://www.w3.org/2000/svg" viewBox="0 0 868.16685 672.5809"><defs><style>.cls-1{fill:#201d20;}.cls-2{fill:#efb661;}</style></defs><path class="cls-1" d="M222.79913,591.41291s-52.77492-148.15806-64.02275-159.27049-19.75287-12.40259-32.70287-9.19362-20.90762,18.4627-20.40083,28.29851,54.78272,258.16246,63.79453,269.28843,10.22689,16.96291,120.68551,63.22189c48.42275,20.279,77.13326,34.86344,77.13326,34.86344l11.31554,22.29257c7.91269,15.58866,21.33867,38.79793,28.69811,51.34734a12.7779,12.7779,0,0,0,15.006,5.68272c14.03786-4.59841,34.7-14.08365,45.51454-20.45093,9.36862-5.516,28.99714-15.02842,40.65227-22.01919a27.3481,27.3481,0,0,0,11.21247-12.78108c2.21206-5.2616.52738-9.503-45.51647-98.51027-59.73251-115.46872-80.18751-96.11432-141.54672-110.94829-63.23222-15.28679-128.42359-48.64033-141.60956-10.54663s56.65118,49.74579,74.58,56.34554,64.48694,14.36781,66.80421,27.77044-25.92708,1.94589-68.49283-11.213-88.98557-35.01527-89.76605-53.123C171.69982,585.91146,214.30764,592.35877,222.79913,591.41291Z" transform="translate(-105.64982 -226)"/><path class="cls-1" d="M856.66737,591.41291s52.77492-148.15806,64.02276-159.27049S940.443,419.73983,953.393,422.9488s20.90762,18.4627,20.40084,28.29851S919.01111,709.40977,909.9993,720.53574s-10.2269,16.96291-120.68551,63.22189c-48.42276,20.279-77.13327,34.86344-77.13327,34.86344L700.865,840.91364c-7.91269,15.58866-21.33867,38.79793-28.69811,51.34734a12.77789,12.77789,0,0,1-15.006,5.68272c-14.03786-4.59841-34.7-14.08365-45.51454-20.45093-9.36862-5.516-28.99714-15.02842-40.65227-22.01919a27.3481,27.3481,0,0,1-11.21247-12.78108c-2.21206-5.2616-.52738-9.503,45.51647-98.51027,59.73251-115.46872,80.18751-96.11432,141.54672-110.94829,63.23223-15.28679,128.42359-48.64033,141.60957-10.54663s-56.65119,49.74579-74.58,56.34554-64.48694,14.36781-66.80421,27.77044,25.92708,1.94589,68.49284-11.213,88.98556-35.01527,89.766-53.123C907.76668,585.91146,865.15886,592.35877,856.66737,591.41291Z" transform="translate(-105.64982 -226)"/><path class="cls-2" d="M729.5325,396.297C694.87252,462.95082,602.14968,553.6,549.71537,601.887a14.80938,14.80938,0,0,1-19.848,0C477.13679,553.6,384.414,462.95082,349.754,396.297c-76.13345-146.63835,115.82948-244.39725,189.88926-97.7589C613.703,151.89977,805.66593,249.65867,729.5325,396.297Z" transform="translate(-105.64982 -226)"/></svg>