<svg xmlns="http://www.w3.org/2000/svg" viewBox="0 0 1620 800.13903"><defs><style>.cls-1{fill:#7c8a93;}.cls-2{fill:#99a5ae;}.cls-3{fill:#5e3219;}.cls-4{fill:#e6b8a2;}.cls-5{fill:#d3a18d;}.cls-6{fill:#954721;}.cls-7{fill:#ff686b;opacity:0.5;}.cls-8{fill:#f4c17d;}.cls-9{fill:#9db5c4;}.cls-10{fill:#44494c;}.cls-11{fill:#ae7862;}.cls-12{fill:#c28d6f;}.cls-13{fill:#db830f;}.cls-14{fill:#c0866c;}.cls-15{fill:#efb661;}.cls-16{fill:#f3f6f4;}.cls-17{fill:#cc9677;}.cls-18{fill:#a7704c;}.cls-19{fill:#666667;}.cls-20{fill:#433d43;}.cls-21{fill:none;stroke:#213344;stroke-miterlimit:10;stroke-width:2px;}.cls-22{fill:#f1f5f9;}.cls-23{fill:#213344;}.cls-24{fill:#d69f7e;}.cls-25{fill:#bf8567;}.cls-26{fill:#c48a6c;}.cls-27{fill:#829920;}.cls-28{fill:#f4c1c4;}.cls-29{fill:#9e6649;}</style></defs><g id="Layer_2" data-name="Layer 2"><path class="cls-1" d="M127.84227,658.17s-88.905,147.20062-95.3617,145.08809c0,0,128.84965,55.327,133.51943,49.7419s52.4245-103.15742,78.10327-168.34639Z" transform="translate(1 -279.86097)"/><path class="cls-2" d="M290,696s21.48342,170.61825,28.24171,171.30912C318.24171,867.30912,203,846,201,839s-87-107-63-212Z" transform="translate(1 -279.86097)"/><path class="cls-3" d="M408.683,848.6a19.2646,19.2646,0,0,1-2.07976-12.76543c2.6182-14.388,10.03041-48.69709,25.48871-78.60773,16.8133-32.53244,21.77984-41.37007,38.15054-68.48573,48.708-80.67758,126.34064-27.85081,124.294,27.80208-1.119,30.42833-3.44026,142.77057,38.89393,149.15912C682.73,873.142,611.9176,935.56317,589.181,894.70557s-101.72323-54.985-102.848-56.06693c-.7662-.737-30.37165,13.92312-49.16992,23.34519A19.2279,19.2279,0,0,1,412.50737,855.4v0q-.42356-.64044-.795-1.31315Z" transform="translate(1 -279.86097)"/><path class="cls-4" d="M399.95117,885.85193c17.72852-31.12366,70.84961-105.45117,90.31714-80.97455,0,0,9.57422-32.17035-8.06213-58.84961-17.63611-26.67914,57.26184-7.20465,57.26184-7.20465s-11.0586,51.057.80078,63.79791c11.86011,12.74109,52.77246-24.95166,56.84112,60.222,1.42255,29.78064,2.34711,49.13556,2.94886,61.73144C529.74829,912.0824,462.42957,898.89325,399.95117,885.85193Z" transform="translate(1 -279.86097)"/><path class="cls-5" d="M539.33439,737.48815a242.19352,242.19352,0,0,0-4.45669,32.68732c-3.58077-.11568-6.75931-1.36706-7.05895-3.27724l-24.26868,4.04933a37.68359,37.68359,0,0,1-11.3662.15838c-.10281-.01433-.19638-.03347-.29865-.04808a64.46259,64.46259,0,0,0-9.81259-26.365C464.43654,718.01366,539.33439,737.48815,539.33439,737.48815Z" transform="translate(1 -279.86097)"/><path class="cls-4" d="M502.17407,663.871s-84.35619,90.18131-8.53689,100.754a37.68,37.68,0,0,0,11.36619-.15836l24.26874-4.04929c.83207,5.30579,23.85884,5.57908,16.10211-9.68134l28.7659-17.35988s16.36045-12.29063,14.896-33.13594C587.27969,675.239,539.51993,629.35926,502.17407,663.871Z" transform="translate(1 -279.86097)"/><polygon class="cls-6" points="486.496 421.177 478.426 437.583 472.935 434.698 486.496 421.177"/><path class="cls-6" d="M467.04045,728.95419a.34546.34546,0,0,1,.481-.30055,22.22642,22.22642,0,0,1,5.12185,2.24155c1.90919,1.05279,13.05074,7.34367,12.75308,8.26363-.43908,1.35707-4.07451,2.67233-10.03238,2.3501C466.72335,741.04158,466.8477,731.527,467.04045,728.95419Z" transform="translate(1 -279.86097)"/><path class="cls-2" d="M554.78916,917.15135,451.44423,899.6996c-10.4754-1.769-12.46925-2.403-12.46925-2.403.55987-35.82128,28.05034-58.90094,28.05034-58.90094-1.23319-8.9826,14.38341-35.2594,15.26849-39.36868s11.218,5.886,6.2421,4.1131-16.73464,38.16716-16.73464,38.16716c-14.68259,17.81784,58.55819,29.11768,58.55819,29.11768,6.7541-6.87157,9.98049-60.54185,13.8717-65.67487s8.51067.6216,8.51067.6216c-10.17951,48.56112-.52327,69.54582-.52327,69.54582Z" transform="translate(1 -279.86097)"/><ellipse class="cls-7" cx="506.79225" cy="737.36556" rx="14.75355" ry="14.44305" transform="translate(-303.66604 834.44199) rotate(-80.41495)"/><path class="cls-3" d="M523.17189,681.19734s-3.66583,81.589-23.50081,108.09866c0,0-11.95912,18.24355,10.97142,4.33393s34.65318-54.73466,34.65318-54.73466-13.67653,7.538,3.2318,14.40312c8.92756,3.62476,69.41055-35.83492,26.301-84.05446,0,0-39.15011-41.319-74.793-4.3451C500.03547,664.89883,500.55009,676.55015,523.17189,681.19734Z" transform="translate(1 -279.86097)"/><path class="cls-8" d="M-1,751s652,311,1291,113c360.56294-111.72373,266.61627,136.55243,329,148.77081V1076H-1Z" transform="translate(1 -279.86097)"/><path class="cls-9" d="M-1,898.83391c57.24829,23.94644,143.05005,58.1112,269,106.36665C831.70227,1221.17283,1333.02808,581.95035,1619,482v598H-1Z" transform="translate(1 -279.86097)"/></g><g id="Layer_1" data-name="Layer 1"><path class="cls-10" d="M883.68286,693.95323S851.8263,771.64458,813.14334,770.485s-113.77342,35.94675-69.40179,92.76579,133.1149,33.6276,146.76771-18.55315,50.06031-96.24451,47.78484-113.6381-20.47922-52.18075-29.58109-49.86161S883.68286,693.95323,883.68286,693.95323Z" transform="translate(1 -279.86097)"/><path class="cls-10" d="M1003.59759,708.85789s54.61124-17.92173-23.89242-71.68694Z" transform="translate(1 -279.86097)"/><path class="cls-11" d="M971.65411,740.16634s-19.71273,30.14889-16.234,45.22333-5.0913,65.4161-48.702,0c-9.27658-13.91487,25.51059-40.585,22.03187-68.41477S971.65411,740.16634,971.65411,740.16634Z" transform="translate(1 -279.86097)"/><path class="cls-12" d="M1000.0321,662.64237s33.57993,148.5343-64.01173,99.77876l-20.98745-17.00774s-30.43181-11.3385-7.34561-28.34624L878.30487,706.8625S963.30406,559.46205,1000.0321,662.64237Z" transform="translate(1 -279.86097)"/><path class="cls-10" d="M1006.79406,666.26307s-38.13855,50.05745-84.99448,29.7961c0,0,8.39934,35.98977-11.9864,29.79611-19.61411-5.95922-32.69018-10.7266-32.69018-10.7266s7.62771-66.74327,33.77985-84.62093S992.62831,606.67087,1006.79406,666.26307Z" transform="translate(1 -279.86097)"/><circle class="cls-7" cx="951.78181" cy="452.18837" r="23.19145"/><polygon class="cls-13" points="995.298 428.77 1004.006 448.84 994.39 451.491 995.298 428.77"/><path class="cls-14" d="M1141.13416,1080,1153.775,896.28162s36.05317-3.6886,38.48389-1.26227c1.84473,1.84137,2.44415,125.47754,2.626,184.98065Z" transform="translate(1 -279.86097)"/><path class="cls-15" d="M1366,1080H1174.4549l6.09674-144.61731s-23.91-6.9754-38.04938-10.81781-.31336-29.372,12.32672-97.98193c9.83557-53.38727,58.55487-60.15473,69.85437-61.93189a3.6481,3.6481,0,0,1,4.04254,2.49469c1.80121,5.58106,6.42664,17.81275,13.83679,23.37519,18.366,13.78649,44.58808-36.71589,44.58808-36.71589l12.13751,7.02692c14.65283,8.48315,29.99225,15.15173,44.75641,23.79968C1375.80505,803.235,1366,885.952,1366,885.952Z" transform="translate(1 -279.86097)"/><path class="cls-14" d="M1292.96928,757.49943s-21.764-1.21946-19.20351-80.48423l-.20942-24.38916-25.822,10.16215-25.94506,71.54154s11.009,10.97512,8.44852,26.0151-5.29112,61.1292,27.14148,38.366S1292.96928,757.49943,1292.96928,757.49943Z" transform="translate(1 -279.86097)"/><path class="cls-12" d="M1171.76431,846.46294s42.58476-7.11354,42.58476,9.60043-27.69465,34.06058-38.013,16.714S1171.76431,846.46294,1171.76431,846.46294Z" transform="translate(1 -279.86097)"/><path class="cls-12" d="M1186.37588,852.98793s34.52373,15.03128,33.96649,5.22466-25.36791-14.00188-27.3522-14.637-22.51031-5.21742-30.7673-2.52437-13.54843,17.16136-13.54843,17.16136Z" transform="translate(1 -279.86097)"/><path class="cls-12" d="M1194.54728,851.96193s19.11219,8.61484,14.15192,14.76284-28.30384,5.00854-28.30384-3.13034S1194.54728,851.96193,1194.54728,851.96193Z" transform="translate(1 -279.86097)"/><path class="cls-16" d="M1172.51251,873.56219c-105.91247,62.52979-149.54059,30.60773-171.87506,9.6825-3.38257-3.16913-3.5827,35.45215-6.99536,79.69641-.00446.05768-.00983.10773-.01453.16333.36383.8797.76441,1.88764,1.20978,3.05548L1013.69226,1079H757.77917c11.51307-31.38306,33.71668-82.50531,50.34839-145.91528,18.60437-70.93128,20.39685-90.38263,37.787-130.64295,9.66382-22.37256,47.059-29.609,55.88544-30.09283a5.9167,5.9167,0,0,1,4.86328,2.06585c7.9892,9.44281,43.30969,39.75531,46.21576,35.19574,2.81848-4.42211,2.33166-22.49792,2.17541-26.74676a.71013.71013,0,0,1,.85273-.71918c49.44287,10.165,87.25891,62.12281,111.62365,67.70636,15.83954,3.62988,75.216-9.65692,93.60181-13.95068a5.781,5.781,0,0,1,6.904,4.15906l7.14649,27.02819A5.80193,5.80193,0,0,1,1172.51251,873.56219Z" transform="translate(1 -279.86097)"/><path class="cls-17" d="M1191.00995,647.12832s-12.02532,94.64733,21.24473,98.27212c0,0,16.83544,1.20826,40.48524-6.44408s24.45148-16.11018,24.05064-24.16527l.06324-10.47162s16.37136-2.41653,11.96208-13.2909-5.61182-11.67988-11.22364-9.66611V653.16964Z" transform="translate(1 -279.86097)"/><rect class="cls-18" x="806.39922" y="969.87556" width="172.08445" height="10.06654" rx="2.90968" transform="translate(2201.01725 887.77681) rotate(140.85599)"/><path class="cls-15" d="M1014.402,993.05542,908.81305,1079H866.2251l-41.85529-51.42212a2.9183,2.9183,0,0,1,.41986-4.0935L953.73846,918.526a2.91823,2.91823,0,0,1,4.09345.4198l56.99,70.01618A2.91823,2.91823,0,0,1,1014.402,993.05542Z" transform="translate(1 -279.86097)"/><path class="cls-12" d="M952.59,1046.65632s3.63709,6.9944,17.90566-5.036,12.03037-15.38767,11.191-18.46521c0,0,4.47641,4.47642,7.83373,0s1.67865-5.47814,0-6.65593-4.47642-9.2913-20.9832-13.48794l-26.57871,16.78656Z" transform="translate(1 -279.86097)"/><rect class="cls-16" x="875.61183" y="909.42537" width="68.09153" height="128.81201" rx="3.24259" transform="translate(2236.10982 831.81418) rotate(138.98586)"/><rect class="cls-19" x="970.91436" y="948.75686" width="6.74799" height="29.99179" rx="2.90968" transform="translate(2339.29899 816.30077) rotate(140.85599)"/><rect class="cls-2" x="972.58161" y="947.3998" width="6.74799" height="29.99179" rx="2.90968" transform="translate(2341.40262 812.83873) rotate(140.85599)"/><path class="cls-20" d="M1269.49421,687.341c-10.10276-1.9027-6.33243-19.53184-5.93666-29.48925,0,0-42.34817,7.65955-66.49058-3.44679l-6.10686-4.96159s-4.18062-3.52458-2.06721-18.4c2.78956-19.63456,90.1-43.6594,101.18173,16.08505s-13.22742,69.24689-13.22742,69.24689l.00659-12.05578s9.95567-6.25514,6.92564-15.08687c-.34678-1.01076-.99437-1.89694-1.373-2.897-1.00979-2.667-4.87331-6.95764-10.53757-3.20743Z" transform="translate(1 -279.86097)"/><path class="cls-15" d="M1353.55074,792.36994s15.56011,11.39612,22.40442,44.14067c6.67492,31.9342,5.11674,82.51741,4.868,96.7009a4.05748,4.05748,0,0,1-3.90376,3.98226l-68.5979,2.7207,1.57011-127.72292Z" transform="translate(1 -279.86097)"/><polygon class="cls-13" points="1207.05 407.026 1199.595 427.68 1209.706 429.62 1207.05 407.026"/><circle class="cls-7" cx="1245.9342" cy="429.61956" r="21.85245"/><path class="cls-12" d="M978.66412,771.06937a34.70379,34.70379,0,0,1-8.85634,1.17782c-.89817,0-.82382-.09217-.856-.546a1.32508,1.32508,0,0,0-.48659-.96969c-1.32262-1.07327,1.20482-3.618,2.25676-4.58292a.82178.82178,0,0,1,.9315-.12183l7.21374,3.70649C979.5621,770.09027,979.42074,770.87486,978.66412,771.06937Z" transform="translate(1 -279.86097)"/><path class="cls-21" d="M1001.2232,836.78019" transform="translate(1 -279.86097)"/><path class="cls-22" d="M1157.331,836.78019s21.33468-17.81756,17.85217,30.30734c0,0,2.8656,6.25273-8.73395,6.25273s-26.91865-23.99991-26.91865-23.99991l17.03025-10.38247" transform="translate(1 -279.86097)"/><path class="cls-14" d="M1370.9032,1018.11536c-5.7898,4.82782-13.29028,15.68982-18.69263,20.94763L1311.7677,1080h-65.041l64.86822-72.7301c3.77466-3.80268,11.71588-10.342,11.50934-15.69605l2.29785-52.65942,48.22076-2.58991S1382.43286,1008.50128,1370.9032,1018.11536Z" transform="translate(1 -279.86097)"/><ellipse class="cls-23" cx="913.0957" cy="738.42699" rx="5.21808" ry="8.69679" transform="translate(-232.37115 204.33789) rotate(-26.45974)"/><ellipse class="cls-23" cx="1221.34904" cy="565.09798" rx="5.99998" ry="16.34036"/><ellipse class="cls-22" cx="1219.37016" cy="845.59724" rx="9.57443" ry="3.50109" transform="translate(320.83742 1745.87996) rotate(-87.42468)"/><path class="cls-21" d="M913.0957,737.18292s53.34033,125.10389,88.1275,99.59727c0,0,23.19145-9.7168-30.14888-68.01765" transform="translate(1 -279.86097)"/><path class="cls-21" d="M1216.97818,846.73688s-57.1292,102.46242-216.94316-7.779" transform="translate(1 -279.86097)"/><path class="cls-20" d="M393.04717,339.06565s-12.3581,51.84015-26.6987,76.70569c-8.02769,13.91942-36.35672,70.31528-55.64244,35.22668-19.95876-36.31316-32.65236-54.25557-32.65236-54.25557l69.52383-43.97627Z" transform="translate(1 -279.86097)"/><polygon class="cls-20" points="285.226 70.416 295.805 73.121 279.398 134.242 253.275 126.788 285.226 70.416"/><path class="cls-18" d="M336.01317,436.88653a43.07068,43.07068,0,0,0-38.926-36.207,86.7261,86.7261,0,0,0-36.07632,4.49827c-34.89859,12.2659-42.3004,14.05844-66.87608,51.48886-17.49133,26.64047-76.9,127.6191-106.86647,159.37406a19.61048,19.61048,0,0,0-4.46484,19.76476C87.39359,649.16817,102.27479,668.72423,149,678c4.70306.93364,14.186,2.51136,25.34318,4.38934A401.81258,401.81258,0,0,1,284.71755,717.935l24.19977,11.88038a8.94781,8.94781,0,0,0,12.67283-6.9686C327.52307,676.30493,347.45166,508.44076,336.01317,436.88653Z" transform="translate(1 -279.86097)"/><path class="cls-24" d="M287.34753,354.93463s-7.42881,47.29741-14.92693,48.72365c-18.77757,3.57176,15.08458,29.22363,23.699,32.70664s19.84576-1.71946,13.77622-27.08421c-.33488-1.39947,20.70043-34.02819,20.70043-34.02819Z" transform="translate(1 -279.86097)"/><path class="cls-24" d="M381.587,340.66248c-16.57877,58.817-42.62987,81.8456-65.64817,67.606s-28.19141-45.302-28.855-49.35057c-.26693-1.62851-1.14613-.5669-4.8349-2.22054-18.9983-8.51674-3.60981-8.22738-2.43906-15.74533,2.31234-14.84857,12.39505-5.4814,12.39505-5.4814l14.63075-28.53529,28.40717-2.15305c1.86938-.14169,40.81419,4.10026,42.26438,5.30545Z" transform="translate(1 -279.86097)"/><path class="cls-20" d="M377.39361,332.44724s5.38738,10.03718-1.9,35.17468c-.89144,3.075.58762,3.32472,2.28954,2.80575a8.58828,8.58828,0,0,0,4.97945-4.22547c4.64873-8.65366,19.01165-38.49377,6.49934-56.09057-14.7515-20.74592-30.35311-30.84068-64.873-30.224-35.60343.636-92.63677,49.74628-115.30721,106.2838-8.76,21.84636-35.13662,30.793-46.0427,33.80531-4.17124,1.15212-19.14014,3.86693-32.94469,1.53577-9.99948-1.6886-31.87326-9.439-43.4118,4.839-19.87632,24.59537,14.28393,71.42941,35.83444,82.18,21.51333,10.732,57.9769,22.90774,70.41314-26.71423s65.248-68.086,65.248-68.086,31.10711-55.06408,28.57745-56.82266c-.82109-.5708-8.12577.0846-6.843-9.36782.967-7.126,4.69559-11.57885,8.51566-10.848,10.80409,2.06694,24.03182,30.85637,53.13351,11.91365C366.56439,332.33175,377.39361,332.44724,377.39361,332.44724Z" transform="translate(1 -279.86097)"/><path class="cls-18" d="M209.66669,496.81342c-4.80865,31.5466-40.68255,23.66465-53.39388,22.05891C167.453,500.76391,187.71429,468.739,196.04043,456.51c26.84693-39.43119,35.98126-43.70472,73.5005-53.83475-1.33424,2.33845-9.32236,10.98385-9.32236,10.98385S217.87853,442.94045,209.66669,496.81342Z" transform="translate(1 -279.86097)"/><path class="cls-25" d="M286.9272,359.65624c.622,3.7943,5.31716,30.654,24.83846,45.81756-.33432.5839-.81487,1.48377-1.071,1.95533a25.76838,25.76838,0,0,1-9.47362-3.43484c-8.88553-5.49677-14.1546-21.3978-17.48369-29.6778,1.61417-9.55876,2.09348-10.57515,2.91509-15.37894A1.42588,1.42588,0,0,1,286.9272,359.65624Z" transform="translate(1 -279.86097)"/><rect class="cls-26" x="346.91053" y="655.60197" width="7.53033" height="14.30925" rx="3" transform="translate(1085.90726 534.96057) rotate(129.58504)"/><rect class="cls-24" x="294.04036" y="634.30845" width="41.94487" height="24.68392" rx="6" transform="matrix(-0.77068, -0.63722, 0.63722, -0.77068, 146.72627, 1065.88307)"/><polygon class="cls-13" points="359.411 109.795 353.026 107.275 359.069 92.822 359.411 109.795"/><path class="cls-27" d="M370.13835,615.75505c18.2,9.63288-69.466,68.49728-72.82509,75.6317-1.37389,2.918,68.90042-39.37636,79.11726-75.10768S370.13835,615.75505,370.13835,615.75505Z" transform="translate(1 -279.86097)"/><path class="cls-27" d="M334.20444,653.60366s-1.441-1.82079,2.66016-.26855c1.4904.56413,3.72762,2.40509,7.70759,3.0364,1.607.25491,4.968-.77482,6.37692-1.639,4.28958-2.63107,14.82428-7.78877,22.77268-.92875,10.21937,8.82-18.50894,7.86653-21.77724,6.82628A174.75151,174.75151,0,0,1,334.20444,653.60366Z" transform="translate(1 -279.86097)"/><path class="cls-28" d="M367.40138,587.76192s-20.12747-9.728-15.31209,9.43257,20.55569,4.25523,20.55569,4.25523-12.31645,16.72184,5.14062,20.09,13.4279-9.776,7.18817-16.71673,1.966.26019,1.966.26019,8.68267,10.668,14.25892,8.06966,12.81-17.39482-1.2946-17.37845-11.41218-.13406-11.41218-.13406,19.9271-.22918,15.09639-6.58242-13.65633-16.05044-16.78513-6.20034a78.47913,78.47913,0,0,1-3.66964,9.26553s8.57524-12.97483-2.98537-17.34911c-12.87691-4.87233-18.89413,1.61678-16.23245,6.43261C367.186,587.12356,367.40138,587.76192,367.40138,587.76192Z" transform="translate(1 -279.86097)"/><path class="cls-15" d="M376.4879,601.9059c6.02408,3.42856,11.04049,3.90166,13.70436-.06992,1.33585-1.99162.30891-9.24407-5.71516-12.67263s-12.49132-3.49358-14.74694.46963S370.46382,598.47735,376.4879,601.9059Z" transform="translate(1 -279.86097)"/><circle class="cls-7" cx="319.24171" cy="95.69744" r="17.43805"/><path class="cls-27" d="M375.39378,650.35847c-4.14953-17.224-71.904,43.30059-78.567,44.5796-2.72513.52315,47.51-49.03712,79.47154-49.93609S375.39378,650.35847,375.39378,650.35847Z" transform="translate(1 -279.86097)"/><path class="cls-27" d="M342.59154,668.56023s1.407,1.84718.9193-2.51067c-.17725-1.5837-1.40648-4.2073-1.032-8.2196.15123-1.62006,1.9816-4.62105,3.168-5.772,3.61189-3.5039,11.219-12.43214,6.54233-21.83244-6.01287-12.0861-12.20732,15.98264-12.00931,19.40677A174.75119,174.75119,0,0,0,342.59154,668.56023Z" transform="translate(1 -279.86097)"/><rect class="cls-24" x="322.35222" y="650.24099" width="28.6185" height="28.6185" rx="6" transform="translate(1064.34516 548.69772) rotate(129.58504)"/><path class="cls-28" d="M398.76839,658.38372s3.84141,18.967-11.19518,10.81865.84029-18.15225.84029-18.15225-16.666,6.74279-15.74635-8.62045,11.079-9.16477,15.5617-2.44293.20348-1.70464.20348-1.70464-7.08462-9.57014-3.70939-13.68948,17.33624-7.01238,14.29718,4.8133-2.33539,9.59985-2.33539,9.59985,4.46641-16.66319,8.75857-11.24907,10.53191,14.8959,1.59978,15.40718a67.93779,67.93779,0,0,0-8.55787,1.09025s12.721-4.40883,13.90992,6.225c1.3243,11.8446-5.4086,15.49923-8.87661,12.234C399.25757,658.7013,398.76839,658.38372,398.76839,658.38372Z" transform="translate(1 -279.86097)"/><path class="cls-15" d="M388.56243,648.13765c-1.829-6.68574-1.04442-11.663,3.46336-13.25969,2.26052-.80071,9.03236,1.99118,10.86138,8.67693s.28959,12.96742-4.10892,14.17073S390.39145,654.8234,388.56243,648.13765Z" transform="translate(1 -279.86097)"/><path class="cls-29" d="M203,446c8.09564-9.82076,13.19181-16.43287,20-23,1.92566-.2381,6.56274-.73846,8.79688-.77863,34.13037-.61315,38.16479,3.30549,23.92358,127.28461,0,0,16.73315,34.03375,75.26245,87.1897a2.69723,2.69723,0,0,1,.12647,3.94226L308.7063,664.27979a5.3952,5.3952,0,0,1-7.12915.48388c-16.94007-13.78338-98.03174-86.20971-103.47193-110.14288C191.89111,527.28265,188.14172,481.2406,196,456c.00173-.00556,1.93437-2.89358,1.9361-2.89915C198.313,451.88705,202.19157,446.98071,203,446Z" transform="translate(1 -279.86097)"/></g></svg>