<svg xmlns="http://www.w3.org/2000/svg" viewBox="0 0 1585 740.79224"><defs><style>.cls-1{fill:#efb661;}.cls-2{fill:#f4c17d;}.cls-3{fill:#f3f6f4;}.cls-3,.cls-4{stroke:#433d43;stroke-miterlimit:10;stroke-width:2px;}.cls-4{fill:none;}.cls-5{fill:#433d43;}.cls-6{fill:#91593a;}.cls-7{fill:#a7704c;}.cls-8{fill:#d69f7e;}.cls-9{fill:#bf8567;}.cls-10{fill:#c48a6c;}.cls-11{fill:#9e6649;}.cls-12{fill:#db830f;}.cls-13{fill:#829920;}.cls-14{fill:#f4c1c4;}.cls-15,.cls-21{fill:#ff686b;}.cls-15{opacity:0.5;}.cls-16{fill:#5e3219;}.cls-17{fill:#e6b8a2;}.cls-18{fill:#d3a18d;}.cls-19{fill:#954721;}.cls-20{fill:#99a5ae;}</style></defs><g id="Layer_2" data-name="Layer 2"><path class="cls-1" d="M1920,270c-458,10-429.946,374.934-844,400C630,697,335,980,335,980H1920Z" transform="translate(-335 -239.20776)"/><circle class="cls-2" cx="1143.05525" cy="412" r="121.11911"/><rect class="cls-3" x="900.95863" y="1" width="513.73187" height="411" rx="6"/><line class="cls-4" x1="900.95863" y1="40" x2="1414.69049" y2="40"/><path class="cls-5" d="M1374.271,366.12727s3.5536,53.17421,13.5536,80.08049c5.59788,15.0618,24.14087,75.38745,49,44,25.72668-32.48285,41.23069-48.06115,41.23069-48.06115l-61.23069-54.93885Z" transform="translate(-335 -239.20776)"/><path class="cls-2" d="M1045.45569,979.60181a128.40559,128.40559,0,1,0-227.8855,0Z" transform="translate(-335 -239.20776)"/><path class="cls-2" d="M1778.91235,980H1920V657.74774A176.07908,176.07908,0,0,0,1778.91235,980Z" transform="translate(-335 -239.20776)"/></g><g id="Layer_4" data-name="Layer 4"><polygon class="cls-5" points="1144.706 156.094 1133.825 157 1139.825 220 1166.825 217 1144.706 156.094"/><path class="cls-6" d="M1446.9015,472.83c-21.18219-17.00925-25.93725-16.22526-86.8845,77.50538,0,0-29.75134,15.70231-96.65182,24.49047a2.64885,2.64885,0,0,0-2.30341,2.699l.796,27.43757a3.92548,3.92548,0,0,0,4.22379,3.802c18.45968-1.42212,110.46107-12.74326,127.39192-26.859,19.33957-16.12393,48.08235-49.49836,57.36254-70.98971C1454.105,503.34511,1466.457,488.533,1446.9015,472.83Z" transform="translate(-335 -239.20776)"/><path class="cls-7" d="M1425.25426,449.23881a14.30241,14.30241,0,0,1,8.57622-5.1843c10.28845-1.94011,34.92564-4.41554,59.6251,9.24756,32.369,17.90569,39.369,20.90569,57.369,61.90569s51,136,58,136l-218-2S1388.9456,495.1335,1425.25426,449.23881Z" transform="translate(-335 -239.20776)"/><path class="cls-8" d="M1475.85262,399.37491s-.55046,47.8741,6.60549,50.529c17.92069,6.64858-19.74006,26.3039-28.81412,28.3039s-19.2824-5-9.07407-29c.56323-1.32417-14.74536-37-14.74536-37Z" transform="translate(-335 -239.20776)"/><path class="cls-8" d="M1385.30528,369.61006c6.55362,60.75647,28.40651,87.80136,53.47451,77.59341s35.34115-39.9754,36.66962-43.85693c.53437-1.56133,1.22452-.36815,5.13715-1.38448,20.15121-5.2344,4.92937-7.51144,5.02678-15.11938.1924-15.02631-11.30929-7.4688-11.30929-7.4688l-9.675-30.57311-27.6521-6.85311c-1.81968-.451-40.92714-2.753-42.55776-1.80612Z" transform="translate(-335 -239.20776)"/><path class="cls-5" d="M1390.808,362.20776s-6.98347,9-3.98347,35c.367,3.18046-1.133,3.18046-2.72477,2.38534a8.58826,8.58826,0,0,1-4.20635-4.99561c-3.14289-9.30692-12.33658-41.122,2.93112-56.38973,18-18,35.0647-25.356,69-19,35.00049,6.55551,83.06019,64.47688,96,124,5,23,29.51872,36.21373,39.771,41,3.92117,1.8306,18.229,7,32.229,7,10.141,0,33-4,42,12,15.50342,27.56164-25.97833,68.05378-49.01809,75.06588-23,7-60.98191,12.93412-64.98191-38.06588s-53-78-53-78-21.504-59.47505-18.71687-60.78786c.90467-.42612,7.99824,1.43645,8.30732-8.09761.233-7.18753-2.702-12.19907-6.59045-12.11453-10.99744.23907-28.83427,26.424-54.3755,2.9C1401.5053,363.89707,1390.808,362.20776,1390.808,362.20776Z" transform="translate(-335 -239.20776)"/><path class="cls-7" d="M1528.82456,552.20776c-.51136,31.90689,36.17417,30.10839,48.97541,30.64164-8.00882-19.71723-22.65477-54.66876-28.82839-68.11352-19.9064-43.351-28.20162-49.08587-63.5103-65.32187.92623,2.528,7.36328,12.3828,7.36328,12.3828S1529.69782,497.71951,1528.82456,552.20776Z" transform="translate(-335 -239.20776)"/><path class="cls-9" d="M1475.48088,404.1006c-1.24512,3.63775-10.34717,29.34068-32.12085,41.042.23242.63141.55642,1.59874.73049,2.10637a25.76863,25.76863,0,0,0,9.91331-1.80942c9.67675-3.9405,17.52-18.74218,22.1813-26.35226,0-9.69409-.30337-10.7761-.31363-15.64964A1.42591,1.42591,0,0,0,1475.48088,404.1006Z" transform="translate(-335 -239.20776)"/></g><g id="Layer_5" data-name="Layer 5"><rect class="cls-3" x="624.81318" y="335.81644" width="513.73187" height="335.55694" rx="6"/><line class="cls-4" x1="624.81318" y1="367.65761" x2="1138.54505" y2="367.65761"/><rect class="cls-10" x="1358.3875" y="685.20005" width="7.53033" height="14.30925" rx="3" transform="translate(945.67336 -1072.68925) rotate(60.00001)"/><rect class="cls-8" x="1379.02713" y="670.06966" width="41.94487" height="24.68392" rx="6" transform="matrix(0.86603, -0.5, 0.5, 0.86603, -488.64144, 552.21784)"/><path class="cls-11" d="M1515.52169,486.42037c-28.65244-5.25523-32.65341-2.33914-39.7324,109.50989,0,0-19.3299,27.8541-76.80513,66.88614a2.51828,2.51828,0,0,0-.71306,3.47658l15.23224,24.04666a4.42527,4.42527,0,0,0,5.93009,1.413c16.38869-9.87759,95.83223-62.87415,104.09633-83.33515,9.43981-23.37194,18.49843-66.48278,15.76288-89.93843C1538.329,510.21658,1541.9737,491.272,1515.52169,486.42037Z" transform="translate(-335 -239.20776)"/><polygon class="cls-12" points="1065 182.571 1071.715 181.149 1068.163 165.892 1065 182.571"/><path class="cls-13" d="M1350.788,642.76854c-19.54992,6.46788,57.09067,79.10791,59.21488,86.70206.86884,3.106-61.38193-50.29936-65.50645-87.23308S1350.788,642.76854,1350.788,642.76854Z" transform="translate(-335 -239.20776)"/><path class="cls-13" d="M1379.91805,686.07217s1.724-1.55543-2.57831-.70774c-1.56353.30808-4.07606,1.75082-8.10559,1.7106-1.627-.01624-4.76957-1.59122-6.015-2.678-3.79159-3.30861-13.32041-10.14845-22.30012-4.70771-11.54534,6.99525,16.94068,10.83867,20.33656,10.35715A174.75171,174.75171,0,0,0,1379.91805,686.07217Z" transform="translate(-335 -239.20776)"/><path class="cls-14" d="M1358.148,615.62194s21.46629-6.24069,13.5277,11.85053-20.97727.77306-20.97727.77306,9.36013,18.53923-8.41407,18.95356-11.61263-11.87539-4.30429-17.68027-1.98188-.07079-1.98188-.07079-10.3378,9.07331-15.40355,5.58272-9.73475-19.285,4.17024-16.92027,11.27518,1.76807,11.27518,1.76807-19.61075-3.54406-13.78959-9.00425,16.13826-13.55243,17.58323-3.31886a78.48035,78.48035,0,0,0,2.07559,9.74722s-6.29506-14.22158,5.83253-16.60982c13.50843-2.66015,18.36114,4.7403,14.93473,9.04571C1358.46665,615.02836,1358.148,615.62194,1358.148,615.62194Z" transform="translate(-335 -239.20776)"/><path class="cls-1" d="M1346.83315,628.05546c-6.51087,2.37762-11.536,2.00882-13.5014-2.35088-.98557-2.18625,1.23464-9.16646,7.74552-11.54407s12.89864-1.36487,14.46286,2.9186S1353.344,625.67785,1346.83315,628.05546Z" transform="translate(-335 -239.20776)"/><circle class="cls-15" cx="1106.95564" cy="175.35878" r="17.43805"/><path class="cls-13" d="M1339.84409,676.01379c6.9596-16.2926,63.69019,54.66894,70.04712,57.03955,2.6.9696-38.68147-56.2635-70.04714-62.47188S1339.84409,676.01379,1339.84409,676.01379Z" transform="translate(-335 -239.20776)"/><path class="cls-13" d="M1369.1576,699.42339s-1.69491,1.58711-.48842-2.62869c.43848-1.53208,2.08741-3.91437,2.38621-7.933.12065-1.62262-1.18448-4.88649-2.16265-6.21887-2.978-4.0564-8.99228-14.12668-2.81564-22.617,7.9414-10.91616,9.3756,17.79216,8.61021,21.13552A174.7531,174.7531,0,0,1,1369.1576,699.42339Z" transform="translate(-335 -239.20776)"/><rect class="cls-8" x="1361.36334" y="682.14756" width="28.6185" height="28.6185" rx="6" transform="translate(955.98572 -1082.34677) rotate(60.00001)"/><path class="cls-14" d="M1315.4595,680.03486s-6.946,18.06254,9.23746,12.53175,2.194-18.03876,2.194-18.03876,15.31055,9.42373,16.96193-5.87816-9.39834-10.88161-14.93768-5,.08321-1.71473.08321-1.71473,8.57925-8.25686,5.937-12.8807-15.92657-9.80117-14.899,2.36545.7043,9.8547.7043,9.8547-1.62944-17.17427-6.76319-12.55043-12.86522,12.93427-4.14292,14.92571a67.93849,67.93849,0,0,1,8.25686,2.5s-11.80927-6.46547-14.75226,3.82194c-3.27808,11.45874,2.75228,16.18346,6.71558,13.54126C1314.92427,680.26656,1315.4595,680.03486,1315.4595,680.03486Z" transform="translate(-335 -239.20776)"/><path class="cls-1" d="M1327.22907,671.63125c2.91674-6.28786,2.97185-11.32623-1.20712-13.65127-2.09563-1.16594-9.23782.45939-12.15456,6.74724s-2.44477,12.73818,1.692,14.65709S1324.31233,677.9191,1327.22907,671.63125Z" transform="translate(-335 -239.20776)"/><path class="cls-16" d="M1274.01014,865.94475a19.26458,19.26458,0,0,0,4.17631-12.24092c-.18587-14.62313-1.78175-49.68743-12.04379-81.75448-11.16155-34.87789-14.58719-44.41912-26.21428-73.88214-34.59425-87.66172-119.93939-48.49917-127.18819,6.71758-3.96329,30.18985-20.3807,141.35026-63.18765,140.6005-49.85011-.87313,9.57987,72.46769,38.80234,35.96639s109.45875-37.2793,110.748-38.15885c.87823-.59915,27.62929,18.786,44.59625,31.20664a19.22789,19.22789,0,0,0,25.40775-2.38646h0q.52428-.561,1.00255-1.16244Z" transform="translate(-335 -239.20776)"/><path class="cls-17" d="M1278.188,909.21073c-9.62671-29.3944-52.79641-122.00214-77.344-99.96308,0,0-4.08371-33.31548,17.74881-56.6856,21.83227-23.37011-55.2627-16.63885-55.2627-16.63885s2.40259,52.18554-11.41284,62.77392c-13.81592,10.58838-47.88086-33.3905-66.0752,49.91657-6.39868,29.29834-10.54492,48.28284-13.23437,60.597Z" transform="translate(-335 -239.20776)"/><path class="cls-18" d="M1163.68408,734.62911a242.19323,242.19323,0,0,1-1.04834,32.97308c3.55.48218,6.89257-.22247,7.5061-2.05609l23.25561,8.03382a37.68352,37.68352,0,0,0,11.18116,2.04876c.10376.003.19922-.0003.30249.00232a64.46271,64.46271,0,0,1,14.06567-24.363C1240.77905,727.89785,1163.68408,734.62911,1163.68408,734.62911Z" transform="translate(-335 -239.20776)"/><path class="cls-17" d="M1212.58373,668.22729s68.16231,102.96861-8.359,100.76888a37.68021,37.68021,0,0,1-11.18114-2.04875l-23.25569-8.03379c-1.70393,5.09317-24.45474,1.52843-14.26526-12.22737l-25.4737-21.90737s-14.08552-14.84325-9.17053-35.1537C1126.77332,665.26551,1181.50582,627.97886,1212.58373,668.22729Z" transform="translate(-335 -239.20776)"/><polygon class="cls-19" points="887.841 468.445 893.065 485.966 898.961 484.035 887.841 468.445"/><path class="cls-19" d="M1236.38976,738.25206a.34546.34546,0,0,0-.42421-.37645,22.22639,22.22639,0,0,0-5.4236,1.35741c-2.05784.72019-14.09135,5.068-13.951,6.02474.207,1.41123,3.57266,3.31348,9.501,3.98779C1234.68975,750.22351,1236.15142,740.821,1236.38976,738.25206Z" transform="translate(-335 -239.20776)"/><path class="cls-20" d="M1118.52909,909.21073h104.8081c10.62371,0,12.6953-.29318,12.6953-.29318,5.41259-35.41443-17.85106-62.74936-17.85106-62.74936,2.71167-8.65185-8.31152-37.16217-8.5-41.36145s-12.0415,3.93592-6.83984,3.0163,10.14575,40.42084,10.14575,40.42084c11.51074,20.01391-62.58911,18.96057-62.58911,18.96057-5.51563-7.90027.23974-61.35852-2.74243-67.06781s-8.49537-.8042-8.49537-.8042c1.95142,49.57818-11.0642,68.66205-11.0642,68.66205Z" transform="translate(-335 -239.20776)"/><ellipse class="cls-15" cx="860.79232" cy="500.71912" rx="14.44305" ry="14.75355"/><path class="cls-16" d="M1188.994,681.81539s-9.97086,81.06043,5.17306,110.50271c0,0,8.7544,19.98019-11.5399,2.44655s-25.05546-59.74069-25.05546-59.74069,12.23044,9.71008-5.585,13.66392c-9.4065,2.08761-62.47463-46.8923-11.93783-87.26045,0,0,45.48363-34.2232,74.4724,8.16947C1214.52132,669.5969,1212.07381,680.99987,1188.994,681.81539Z" transform="translate(-335 -239.20776)"/><circle class="cls-1" cx="663.57107" cy="351.05045" r="6.5"/><circle class="cls-13" cx="684.52326" cy="351.05045" r="6.5"/><circle class="cls-21" cx="642.61888" cy="351.05045" r="6.5"/><circle class="cls-1" cx="943.18802" cy="20.5" r="6.5"/><circle class="cls-13" cx="964.14021" cy="20.5" r="6.5"/><circle class="cls-21" cx="922.23583" cy="20.5" r="6.5"/></g></svg>